<?xml version="1.0" standalone="no"?>
<!DOCTYPE svg PUBLIC "-//W3C//DTD SVG 20010904//EN"
 "http://www.w3.org/TR/2001/REC-SVG-20010904/DTD/svg10.dtd">
<svg version="1.0" xmlns="http://www.w3.org/2000/svg"
 width="700.000000pt" height="700.000000pt" viewBox="0 0 700.000000 700.000000"
 preserveAspectRatio="xMidYMid meet">
<metadata>
Created by potrace 1.14, written by Peter Selinger 2001-2017
</metadata>
<g transform="translate(0.000000,700.000000) scale(0.100000,-0.100000)"
fill="#000000" stroke="none">
<path d="M1248 6559 c-7 -4 -7 -13 0 -25 5 -11 24 -57 40 -104 75 -209 113
-314 160 -440 28 -74 83 -225 123 -335 39 -110 77 -211 82 -225 6 -14 11 -27
11 -30 2 -9 128 -354 141 -385 7 -16 21 -54 31 -82 10 -29 20 -53 23 -53 5 1
129 153 789 968 79 97 151 186 160 197 9 11 53 65 97 120 44 55 82 102 85 105
3 3 44 52 90 110 47 58 87 107 90 110 13 12 50 63 50 69 0 8 -1959 8 -1972 0z"/>
<path d="M3788 6559 c-8 -5 87 -136 128 -174 5 -5 28 -32 49 -60 22 -27 42
-52 45 -55 3 -3 41 -50 85 -105 44 -55 82 -102 85 -105 3 -3 32 -39 65 -80 33
-41 130 -160 215 -265 84 -104 213 -262 284 -350 72 -88 163 -200 203 -250 41
-49 88 -108 106 -129 18 -22 44 -53 58 -70 l26 -30 13 40 c7 21 18 53 25 69 7
17 30 75 50 130 19 55 39 107 42 115 3 8 7 20 9 25 5 18 375 1009 388 1040 7
17 23 59 36 95 12 36 26 74 31 85 20 45 28 75 21 76 -37 5 -1956 2 -1964 -2z"/>
<path d="M3374 6333 c-66 -82 -126 -157 -135 -168 -9 -11 -43 -52 -75 -91 -33
-39 -113 -138 -179 -220 -66 -81 -212 -261 -325 -400 -113 -138 -279 -343
-369 -455 -90 -112 -171 -211 -178 -220 -13 -15 95 -16 1387 -16 1013 0 1398
3 1391 11 -4 6 -107 133 -227 281 -120 149 -224 277 -231 285 -6 8 -36 44 -65
80 -30 36 -160 196 -289 355 -461 569 -573 705 -580 705 -3 0 -60 -66 -125
-147z"/>
<path d="M5921 6258 c-30 -79 -67 -179 -82 -223 -16 -44 -36 -96 -44 -115 -8
-19 -37 -98 -65 -175 -28 -77 -54 -147 -57 -155 -3 -8 -7 -19 -9 -25 -2 -5
-42 -113 -89 -240 -179 -475 -205 -545 -205 -553 0 -5 354 -9 815 -9 597 0
813 3 808 11 -4 6 -41 65 -83 132 -41 66 -80 129 -87 140 -6 10 -96 154 -200
319 -103 165 -202 323 -218 350 -17 28 -110 176 -206 330 -97 154 -186 297
-198 318 -12 20 -23 37 -25 37 -1 0 -26 -64 -55 -142z"/>
<path d="M905 6210 c-60 -99 -116 -188 -123 -197 -11 -16 -577 -922 -727
-1164 l-54 -87 810 0 c445 0 809 2 809 4 0 2 -25 72 -55 155 -31 83 -64 175
-74 203 -20 54 -294 807 -387 1061 -74 202 -76 205 -83 205 -3 -1 -55 -82
-116 -180z"/>
<path d="M51 4502 c-8 -3 32 -57 155 -207 17 -22 75 -94 128 -160 53 -66 102
-127 109 -135 7 -8 141 -175 297 -370 157 -195 287 -357 291 -360 3 -3 126
-156 274 -340 148 -184 305 -380 350 -435 45 -55 175 -217 290 -360 116 -143
215 -267 222 -275 7 -8 46 -58 88 -110 42 -52 84 -104 93 -115 9 -11 53 -65
97 -120 44 -55 87 -109 96 -120 10 -11 126 -155 258 -320 133 -165 257 -318
276 -340 l34 -40 -24 65 c-13 36 -49 135 -80 220 -31 85 -62 171 -70 190 -8
19 -86 233 -174 475 -304 838 -376 1034 -402 1100 -4 11 -19 54 -34 95 -15 41
-33 91 -40 110 -17 43 -91 246 -230 630 -58 162 -110 304 -115 315 -5 11 -29
76 -54 145 -115 322 -157 436 -165 450 -7 13 -110 15 -835 15 -454 0 -830 -1
-835 -3z"/>
<path d="M1996 4502 c-2 -1 30 -94 71 -205 41 -111 78 -213 83 -227 4 -14 41
-113 80 -220 93 -252 172 -468 220 -600 21 -58 54 -148 73 -200 67 -183 247
-677 391 -1075 42 -115 81 -219 85 -230 5 -11 57 -153 116 -315 116 -321 142
-392 190 -520 18 -47 63 -171 101 -277 38 -105 72 -186 76 -179 3 6 23 56 43
111 119 321 198 532 205 550 5 11 31 81 59 155 48 133 159 429 526 1415 295
791 337 905 435 1170 51 138 98 264 105 280 6 17 33 89 59 160 27 72 54 145
62 164 8 18 12 36 9 39 -6 6 -2984 10 -2989 4z"/>
<path d="M5271 4500 c-4 -3 -56 -135 -115 -295 -60 -159 -150 -402 -201 -540
-100 -268 -306 -822 -410 -1100 -171 -458 -289 -777 -312 -840 -14 -38 -31
-83 -38 -100 -7 -16 -28 -70 -45 -120 -18 -49 -47 -128 -65 -175 -18 -47 -54
-143 -80 -215 -25 -71 -50 -139 -55 -150 -11 -23 -90 -235 -94 -250 -2 -5 -7
-19 -11 -30 -4 -11 -14 -35 -21 -52 -7 -18 -11 -33 -9 -33 2 0 46 53 98 118
52 64 174 216 272 337 97 121 191 238 208 259 18 22 75 93 127 157 52 65 163
202 246 306 276 342 1053 1307 1087 1348 13 17 80 100 149 185 217 271 614
764 656 815 10 11 33 40 52 65 19 25 37 47 40 50 9 9 197 245 202 255 6 10
-1666 15 -1681 5z"/>
</g>
</svg>
